<svg version="1.1" id="Layer_1" xmlns="http://www.w3.org/2000/svg" xmlns:xlink="http://www.w3.org/1999/xlink" x="0px" y="0px"
	 width="100%" viewBox="0 0 256 256" enable-background="new 0 0 256 256" xml:space="preserve">
<path fill="#000000" opacity="1.000000" stroke="none" 
	d="
M199.468658,257.000000 
	C206.030777,253.812958 213.686249,252.443176 220.607803,248.723724 
	C239.680649,238.474564 250.579620,222.396866 255.664963,201.830597 
	C255.858429,201.048187 256.183502,200.298309 256.723633,199.266632 
	C257.000000,218.260132 257.000000,237.520264 257.000000,257.000000 
	C237.979675,257.000000 218.958496,257.000000 199.468658,257.000000 
z"/>
<path fill="#000000" opacity="1.000000" stroke="none" 
	d="
M1.000000,199.468658 
	C3.748886,205.822861 5.345112,213.023804 8.832856,219.639908 
	C19.255020,239.410263 35.613991,250.962967 57.107574,255.817734 
	C57.572754,255.922791 57.988567,256.246429 58.713707,256.734039 
	C39.739868,257.000000 20.479736,257.000000 1.000000,257.000000 
	C1.000000,237.979675 1.000000,218.958496 1.000000,199.468658 
z"/>
<path fill="#000000" opacity="1.000000" stroke="none" 
	d="
M57.531342,1.000000 
	C51.983116,3.957618 45.405678,5.386029 39.318348,8.313641 
	C21.804277,16.736773 10.891547,30.633038 4.435380,48.491325 
	C3.264786,51.729290 2.488699,55.109875 1.265243,58.712311 
	C1.000000,39.740509 1.000000,20.481014 1.000000,1.000000 
	C19.686977,1.000000 38.374832,1.000000 57.531342,1.000000 
z"/>
<path fill="#000000" opacity="1.000000" stroke="none" 
	d="
M257.000000,58.531342 
	C254.328110,51.759922 252.385498,44.288738 248.708893,37.376587 
	C238.609695,18.389814 222.574463,7.520404 202.181503,2.313604 
	C201.548050,2.151864 200.931351,1.924460 200.153412,1.363835 
	C218.927429,1.000000 237.854858,1.000000 257.000000,1.000000 
	C257.000000,20.020340 257.000000,39.041512 257.000000,58.531342 
z"/>
<path fill="#000000" opacity="1.000000" stroke="none" 
	d="
M65.204063,100.369019 
	C76.320915,77.746086 93.874954,63.689785 118.436737,60.046947 
	C139.700668,56.893219 159.022629,62.233738 175.432358,77.014305 
	C187.533829,87.914330 195.427963,101.035934 197.633469,117.100082 
	C200.613998,138.809326 196.384933,158.573273 180.973251,175.313721 
	C169.856049,187.389389 156.757538,195.421707 140.480179,197.762024 
	C119.251358,200.814224 100.072716,196.259766 83.631676,181.852112 
	C71.185234,170.944992 62.894661,157.636017 60.414951,141.198303 
	C58.329628,127.374908 59.138210,113.705757 65.204063,100.369019 
M78.220871,150.264816 
	C82.234642,159.238663 87.929344,166.947021 95.853516,172.813080 
	C122.604759,192.616394 159.095856,185.401230 176.373184,156.971390 
	C188.703903,136.681213 185.711411,108.954124 169.503830,91.720917 
	C157.435791,78.889198 142.671249,73.423889 125.181885,74.335831 
	C108.823601,75.188797 95.524887,82.342636 85.800301,94.907547 
	C73.088799,111.331779 70.788948,129.959946 78.220871,150.264816 
z"/>
<path fill="#000000" opacity="1.000000" stroke="none" 
	d="
M185.804932,69.149536 
	C176.162567,56.045540 179.807693,41.418156 193.838364,35.612175 
	C201.069351,32.619949 212.073547,35.556297 216.393707,41.630817 
	C222.950790,50.850639 222.966080,60.506924 216.434906,67.663956 
	C207.490814,77.465111 197.118530,78.062874 185.804932,69.149536 
M200.472153,49.389099 
	C196.606155,49.314674 195.141983,51.390198 195.374344,55.034683 
	C195.564911,58.023422 196.844177,60.257584 200.001114,60.500755 
	C203.196472,60.746891 205.688004,59.005436 206.181732,55.926907 
	C206.736084,52.470226 205.211868,49.803867 200.472153,49.389099 
z"/>
</svg>