<svg version="1.1" id="Layer_1" xmlns="http://www.w3.org/2000/svg" xmlns:xlink="http://www.w3.org/1999/xlink" x="0px" y="0px"
	 width="100%" viewBox="0 0 128 128" enable-background="new 0 0 128 128" xml:space="preserve">
<path fill="#03A9F4" opacity="1.000000" stroke="none" 
	d="
M129.000000,25.000000 
	C129.000000,25.444336 129.000000,25.888672 128.669922,26.762089 
	C124.763748,30.761297 121.081406,34.234467 117.678596,37.962772 
	C116.703735,39.030876 116.181892,40.810783 116.071144,42.310020 
	C115.802315,45.949757 116.449554,49.725342 115.753410,53.253979 
	C111.951874,72.523308 103.714554,89.177444 87.882561,101.757202 
	C70.225746,115.786919 50.224987,118.949669 28.632334,116.283714 
	C18.601048,115.045189 9.630995,110.985497 1.000000,106.000000 
	C1.000000,106.000000 1.000000,105.500000 1.464181,105.250000 
	C18.335653,105.000000 29.513439,101.744759 36.353607,94.974525 
	C22.413546,89.748238 17.549976,85.458549 15.244447,76.211349 
	C17.904823,76.067062 20.533607,75.924484 24.343426,75.717850 
	C12.066115,70.253105 5.635037,62.245056 6.009110,49.298092 
	C9.119637,50.345280 11.750911,51.231125 15.322577,52.433563 
	C4.053740,39.245213 3.691830,28.184464 9.977681,17.092548 
	C23.878990,33.280670 41.121872,43.027950 63.000042,44.475330 
	C63.000042,42.167095 62.878254,39.843983 63.022305,37.537472 
	C63.502110,29.855110 66.587250,23.376324 72.748871,18.714708 
	C83.393135,10.661726 95.991875,10.489390 106.734489,18.493366 
	C109.074287,20.236677 110.660957,20.461998 113.122086,19.450058 
	C117.178993,17.781986 121.358284,16.411581 125.485992,14.915706 
	C125.735695,15.255641 125.985405,15.595576 126.235115,15.935512 
	C123.726929,19.897879 121.218750,23.860245 118.467384,28.206791 
	C122.242126,27.057522 125.621063,26.028761 129.000000,25.000000 
z"/>
<path fill="#FFFFFF" opacity="1.000000" stroke="none" 
	d="
M129.000000,24.531309 
	C125.621063,26.028761 122.242126,27.057522 118.467384,28.206791 
	C121.218750,23.860245 123.726929,19.897879 126.235115,15.935512 
	C125.985405,15.595576 125.735695,15.255641 125.485992,14.915706 
	C121.358284,16.411581 117.178993,17.781986 113.122086,19.450058 
	C110.660957,20.461998 109.074287,20.236677 106.734489,18.493366 
	C95.991875,10.489390 83.393135,10.661726 72.748871,18.714708 
	C66.587250,23.376324 63.502110,29.855110 63.022305,37.537472 
	C62.878254,39.843983 63.000042,42.167095 63.000042,44.475330 
	C41.121872,43.027950 23.878990,33.280670 9.977681,17.092548 
	C3.691830,28.184464 4.053740,39.245213 15.322577,52.433563 
	C11.750911,51.231125 9.119637,50.345280 6.009110,49.298092 
	C5.635037,62.245056 12.066115,70.253105 24.343426,75.717850 
	C20.533607,75.924484 17.904823,76.067062 15.244447,76.211349 
	C17.549976,85.458549 22.413546,89.748238 36.353607,94.974525 
	C29.513439,101.744759 18.335653,105.000000 1.464181,105.000000 
	C1.000000,70.392677 1.000000,35.785355 1.000000,1.089016 
	C43.666576,1.089016 86.333260,1.089016 128.999969,1.095506 
	C129.000000,8.755536 129.000000,16.409077 129.000000,24.531309 
z"/>
<path fill="#FFFFFF" opacity="1.000000" stroke="none" 
	d="
M1.000000,106.468735 
	C9.630995,110.985497 18.601048,115.045189 28.632334,116.283714 
	C50.224987,118.949669 70.225746,115.786919 87.882561,101.757202 
	C103.714554,89.177444 111.951874,72.523308 115.753410,53.253979 
	C116.449554,49.725342 115.802315,45.949757 116.071144,42.310020 
	C116.181892,40.810783 116.703735,39.030876 117.678596,37.962772 
	C121.081406,34.234467 124.763748,30.761297 128.669922,27.095585 
	C129.000000,60.941097 129.000000,94.882195 129.000000,128.911652 
	C86.333420,128.911652 43.666740,128.911652 1.000030,128.905502 
	C1.000000,121.578728 1.000000,114.258102 1.000000,106.468735 
z"/>
</svg>